<svg width="25" height="25" viewBox="0 0 25 25" fill="none" xmlns="http://www.w3.org/2000/svg">
<path d="M4.46331 7.57183C4.47532 7.45226 4.45894 7.33155 4.4155 7.2195C4.37206 7.10746 4.30278 7.00726 4.21331 6.92703L2.36956 4.70516V4.37183H8.09665L12.5237 14.0802L16.4154 4.37183H21.8748V4.70412L20.2966 6.21558C20.2306 6.26702 20.1795 6.33521 20.1488 6.41306C20.118 6.49092 20.1086 6.57559 20.1216 6.65828V17.7687C20.1084 17.8514 20.1177 17.9362 20.1485 18.014C20.1792 18.0919 20.2304 18.1601 20.2966 18.2114L21.8373 19.7229V20.0552H14.0914V19.7229L15.6841 18.1739C15.8425 18.0177 15.8425 17.9708 15.8425 17.7322V8.75099L11.406 20.0187H10.8071L5.64248 8.75099V16.302C5.59977 16.6197 5.70498 16.9395 5.92894 17.1697L8.00394 19.6875V20.0197H2.12061V19.6875L4.19561 17.1697C4.30477 17.056 4.38583 16.9183 4.43231 16.7676C4.47879 16.617 4.48941 16.4575 4.46331 16.302V7.57183Z" fill="white"/>
</svg>
