<svg width="25" height="25" viewBox="0 0 25 25" fill="none" xmlns="http://www.w3.org/2000/svg">
<path d="M19.85 9.3C19.85 9.3 19.7 8.25 19.25 7.8C18.7 7.2 18.05 7.2 17.75 7.15C15.65 7 12.5 7 12.5 7C12.5 7 9.35 7 7.25 7.15C6.95 7.2 6.3 7.2 5.75 7.8C5.3 8.25 5.15 9.3 5.15 9.3C5.15 9.3 5 10.5 5 11.7V12.8C5 14 5.15 15.25 5.15 15.25C5.15 15.25 5.3 16.3 5.75 16.75C6.3 17.35 7.05 17.35 7.4 17.4C8.6 17.45 12.5 17.5 12.5 17.5C12.5 17.5 15.65 17.5 17.75 17.35C18.05 17.3 18.7 17.3 19.25 16.7C19.7 16.25 19.85 15.2 19.85 15.2C19.85 15.2 20 14 20 12.8V11.7C20 10.5 19.85 9.3 19.85 9.3ZM10.95 14.2V10L15 12.1L10.95 14.2Z" fill="white"/>
</svg>
