<svg width="25" height="25" viewBox="0 0 25 25" fill="none" xmlns="http://www.w3.org/2000/svg">
<path fill-rule="evenodd" clip-rule="evenodd" d="M12.5 5C8.35 5 5 8.35 5 12.5C5 15.8 7.15 18.6 10.15 19.6C10.55 19.65 10.65 19.45 10.65 19.25V17.95C8.55 18.4 8.1 16.95 8.1 16.95C7.75 16.1 7.25 15.85 7.25 15.85C6.55 15.4 7.3 15.4 7.3 15.4C8.05 15.45 8.45 16.15 8.45 16.15C9.1 17.3 10.2 16.95 10.65 16.75C10.7 16.25 10.9 15.95 11.15 15.75C9.5 15.55 7.75 14.9 7.75 12.05C7.75 11.25 8.05 10.55 8.5 10.05C8.4 9.85 8.15 9.1 8.55 8.05C8.55 8.05 9.2 7.85 10.6 8.8C11.2 8.65 11.85 8.55 12.5 8.55C13.15 8.55 13.8 8.65 14.4 8.8C15.85 7.85 16.45 8.05 16.45 8.05C16.85 9.1 16.6 9.85 16.5 10.05C17 10.55 17.25 11.25 17.25 12.05C17.25 14.95 15.5 15.55 13.85 15.75C14.1 16 14.35 16.45 14.35 17.15V19.2C14.35 19.4 14.5 19.65 14.85 19.55C17.85 18.55 19.95 15.75 19.95 12.45C20 8.35 16.65 5 12.5 5Z" fill="white"/>
</svg>
