<svg width="25" height="25" viewBox="0 0 25 25" fill="none" xmlns="http://www.w3.org/2000/svg">
<path d="M18.05 6H6.95C6.4 6 6 6.4 6 6.95V18.05C6 18.55 6.45 19 6.95 19H18.05C18.6 19 19 18.6 19 18.05V6.95C19 6.4 18.55 6 18.05 6ZM10 17H8V11H10V17ZM9 10.2C8.35 10.2 7.8 9.65 7.8 9C7.8 8.35 8.35 7.8 9 7.8C9.65 7.8 10.2 8.35 10.2 9C10.2 9.65 9.65 10.2 9 10.2ZM17 17H15V14C15 13.2 14.8 12.4 14 12.4C13.2 12.4 13 13.2 13 14V17H11V11H13V11.7H13.1C13.35 11.2 14 10.8 14.75 10.8C16.6 10.8 17 12 17 13.5V17Z" fill="white"/>
</svg>
