<svg width="36" height="36" viewBox="0 0 36 36" fill="none" xmlns="http://www.w3.org/2000/svg">
<path fill-rule="evenodd" clip-rule="evenodd" d="M18.0004 2.25C18.2988 2.25 18.585 2.36853 18.7959 2.5795C19.0069 2.79048 19.1254 3.07663 19.1254 3.375V29.9093L26.2039 22.8285C26.4152 22.6173 26.7017 22.4986 27.0004 22.4986C27.2992 22.4986 27.5857 22.6173 27.7969 22.8285C28.0082 23.0397 28.1269 23.3263 28.1269 23.625C28.1269 23.9237 28.0082 24.2103 27.7969 24.4215L18.7969 33.4215C18.6924 33.5263 18.5683 33.6094 18.4316 33.6661C18.2949 33.7228 18.1484 33.752 18.0004 33.752C17.8525 33.752 17.7059 33.7228 17.5693 33.6661C17.4326 33.6094 17.3084 33.5263 17.2039 33.4215L8.20394 24.4215C7.9927 24.2103 7.87402 23.9237 7.87402 23.625C7.87402 23.3263 7.9927 23.0397 8.20394 22.8285C8.41519 22.6173 8.7017 22.4986 9.00044 22.4986C9.29919 22.4986 9.5857 22.6173 9.79694 22.8285L16.8754 29.9093V3.375C16.8754 3.07663 16.994 2.79048 17.205 2.5795C17.4159 2.36853 17.7021 2.25 18.0004 2.25Z" fill="white"/>
</svg>
