<svg width="49" height="61" viewBox="0 0 49 61" fill="none" xmlns="http://www.w3.org/2000/svg">
<g filter="url(#filter0_i_29_13)">
<path d="M1 59.5916V9.74932V2L9.86404 9.74932V25.4241L25.3246 18.027L48 28.7704V59.5916L39.3421 52.0183V35.463L25.3246 28.7704L9.86404 35.463V52.0183L1 59.5916Z" fill="white"/>
</g>
<path d="M1 59.5916H0.5V60.6764L1.32479 59.9717L1 59.5916ZM9.86404 52.0183L10.1888 52.3985L10.364 52.2488V52.0183H9.86404ZM9.86404 35.463L9.66541 35.0041L9.36404 35.1346V35.463H9.86404ZM25.3246 28.7704L25.54 28.3192L25.3347 28.2212L25.1259 28.3115L25.3246 28.7704ZM39.3421 35.463H39.8421V35.1476L39.5575 35.0118L39.3421 35.463ZM39.3421 52.0183H38.8421V52.2453L39.0129 52.3947L39.3421 52.0183ZM48 59.5916L47.6708 59.9679L48.5 60.6932V59.5916H48ZM48 28.7704H48.5V28.454L48.2141 28.3185L48 28.7704ZM25.3246 18.027L25.5386 17.5752L25.3235 17.4732L25.1088 17.576L25.3246 18.027ZM9.86404 25.4241H9.36404V26.2176L10.0798 25.8751L9.86404 25.4241ZM9.86404 9.74932H10.364V9.52231L10.1931 9.37289L9.86404 9.74932ZM1 2L1.32909 1.62357L0.5 0.898744V2H1ZM0.5 9.74932V59.5916H1.5V9.74932H0.5ZM1.32479 59.9717L10.1888 52.3985L9.53925 51.6382L0.675211 59.2114L1.32479 59.9717ZM10.364 52.0183V35.463H9.36404V52.0183H10.364ZM10.0627 35.9218L25.5232 29.2292L25.1259 28.3115L9.66541 35.0041L10.0627 35.9218ZM25.1091 29.2216L39.1267 35.9142L39.5575 35.0118L25.54 28.3192L25.1091 29.2216ZM38.8421 35.463V52.0183H39.8421V35.463H38.8421ZM39.0129 52.3947L47.6708 59.9679L48.3292 59.2152L39.6713 51.642L39.0129 52.3947ZM48.5 59.5916V28.7704H47.5V59.5916H48.5ZM48.2141 28.3185L25.5386 17.5752L25.1105 18.4789L47.7859 29.2222L48.2141 28.3185ZM25.1088 17.576L9.64824 24.9731L10.0798 25.8751L25.5404 18.478L25.1088 17.576ZM10.364 25.4241V9.74932H9.36404V25.4241H10.364ZM10.1931 9.37289L1.32909 1.62357L0.670909 2.37643L9.53494 10.1258L10.1931 9.37289ZM0.5 2V9.74932H1.5V2H0.5Z" fill="white"/>
<g filter="url(#filter1_i_29_13)">
<path d="M24.4999 33.1954L26.3938 37.548H32.5229L27.5644 40.238L29.4584 44.5906L24.4999 41.9005L19.5414 44.5906L21.4353 40.238L16.4768 37.548H22.6059L24.4999 33.1954Z" fill="white"/>
</g>
<path d="M37.7563 10.8438V22.1212L47.9999 26.5963V4.3996L37.7563 10.8438Z" fill="white" stroke="white"/>
<defs>
<filter id="filter0_i_29_13" x="0.5" y="0.898743" width="48" height="63.7945" filterUnits="userSpaceOnUse" color-interpolation-filters="sRGB">
<feFlood flood-opacity="0" result="BackgroundImageFix"/>
<feBlend mode="normal" in="SourceGraphic" in2="BackgroundImageFix" result="shape"/>
<feColorMatrix in="SourceAlpha" type="matrix" values="0 0 0 0 0 0 0 0 0 0 0 0 0 0 0 0 0 0 127 0" result="hardAlpha"/>
<feOffset dy="4"/>
<feGaussianBlur stdDeviation="2"/>
<feComposite in2="hardAlpha" operator="arithmetic" k2="-1" k3="1"/>
<feColorMatrix type="matrix" values="0 0 0 0 1 0 0 0 0 1 0 0 0 0 1 0 0 0 0.25 0"/>
<feBlend mode="normal" in2="shape" result="effect1_innerShadow_29_13"/>
</filter>
<filter id="filter1_i_29_13" x="16.4769" y="33.1954" width="16.046" height="15.3951" filterUnits="userSpaceOnUse" color-interpolation-filters="sRGB">
<feFlood flood-opacity="0" result="BackgroundImageFix"/>
<feBlend mode="normal" in="SourceGraphic" in2="BackgroundImageFix" result="shape"/>
<feColorMatrix in="SourceAlpha" type="matrix" values="0 0 0 0 0 0 0 0 0 0 0 0 0 0 0 0 0 0 127 0" result="hardAlpha"/>
<feOffset dy="4"/>
<feGaussianBlur stdDeviation="2"/>
<feComposite in2="hardAlpha" operator="arithmetic" k2="-1" k3="1"/>
<feColorMatrix type="matrix" values="0 0 0 0 1 0 0 0 0 1 0 0 0 0 1 0 0 0 0.25 0"/>
<feBlend mode="normal" in2="shape" result="effect1_innerShadow_29_13"/>
</filter>
</defs>
</svg>
