<svg width="26" height="26" viewBox="0 0 26 26" fill="none" xmlns="http://www.w3.org/2000/svg">
<path d="M17.7233 15.1667C17.81 14.4517 17.875 13.7367 17.875 13C17.875 12.2633 17.81 11.5483 17.7233 10.8333H21.385C21.5583 11.5267 21.6667 12.2525 21.6667 13C21.6667 13.7475 21.5583 14.4733 21.385 15.1667H17.7233ZM15.8058 21.19C16.4558 19.9875 16.9542 18.6875 17.3008 17.3333H20.4967C19.4471 19.1406 17.7819 20.5097 15.8058 21.19ZM15.535 15.1667H10.465C10.3567 14.4517 10.2917 13.7367 10.2917 13C10.2917 12.2633 10.3567 11.5375 10.465 10.8333H15.535C15.6325 11.5375 15.7083 12.2633 15.7083 13C15.7083 13.7367 15.6325 14.4517 15.535 15.1667ZM13 21.6233C12.1008 20.3233 11.375 18.8825 10.9308 17.3333H15.0692C14.625 18.8825 13.8992 20.3233 13 21.6233ZM8.66666 8.66667H5.50332C6.54208 6.85448 8.20602 5.48328 10.1833 4.81C9.53332 6.0125 9.04582 7.3125 8.66666 8.66667ZM5.50332 17.3333H8.66666C9.04582 18.6875 9.53332 19.9875 10.1833 21.19C8.21017 20.5093 6.54857 19.14 5.50332 17.3333ZM4.61499 15.1667C4.44166 14.4733 4.33332 13.7475 4.33332 13C4.33332 12.2525 4.44166 11.5267 4.61499 10.8333H8.27666C8.18999 11.5483 8.12499 12.2633 8.12499 13C8.12499 13.7367 8.18999 14.4517 8.27666 15.1667H4.61499ZM13 4.36583C13.8992 5.66583 14.625 7.1175 15.0692 8.66667H10.9308C11.375 7.1175 12.1008 5.66583 13 4.36583ZM20.4967 8.66667H17.3008C16.9618 7.32491 16.4597 6.02972 15.8058 4.81C17.7992 5.4925 19.4567 6.86833 20.4967 8.66667ZM13 2.16667C7.00916 2.16667 2.16666 7.04167 2.16666 13C2.16666 15.8732 3.30802 18.6287 5.33967 20.6603C6.34563 21.6663 7.53989 22.4643 8.85425 23.0087C10.1686 23.5531 11.5773 23.8333 13 23.8333C15.8732 23.8333 18.6287 22.692 20.6603 20.6603C22.692 18.6287 23.8333 15.8732 23.8333 13C23.8333 11.5773 23.5531 10.1686 23.0087 8.85426C22.4643 7.5399 21.6663 6.34564 20.6603 5.33968C19.6543 4.33371 18.4601 3.53573 17.1457 2.9913C15.8314 2.44688 14.4226 2.16667 13 2.16667Z" fill="#4A90E2"/>
</svg>
